<?xml version="1.0" encoding="iso-8859-1"?>
<!-- Generator: Adobe Illustrator 21.0.2, SVG Export Plug-In . SVG Version: 6.00 Build 0)  -->
<svg version="1.1" id="Layer_1" xmlns="http://www.w3.org/2000/svg" xmlns:xlink="http://www.w3.org/1999/xlink" x="0px" y="0px"
	 viewBox="0 0 100.5 100.5" style="enable-background:new 0 0 100.5 100.5;" xml:space="preserve">
<path d="M91.751,56.361H24.94V20.617c0-4.047,3.29-7.34,7.334-7.34c3.635,0,6.653,2.658,7.232,6.13
	c-5.602,0.731-9.93,5.185-9.93,10.569c0,0.829,0.672,1.5,1.5,1.5h20.086c0.828,0,1.5-0.671,1.5-1.5
	c0-5.449-4.431-9.95-10.129-10.598c-0.615-5.119-4.977-9.102-10.259-9.102c-5.698,0-10.334,4.639-10.334,10.34V56.36H8.247
	c-0.828,0-1.5,0.671-1.5,1.5s0.672,1.5,1.5,1.5h6.426l7.312,29.226c0.167,0.667,0.767,1.136,1.455,1.136h53.122
	c0.688,0,1.288-0.468,1.455-1.136l7.312-29.226h6.421c0.828,0,1.5-0.671,1.5-1.5S92.58,56.361,91.751,56.361z M49.5,28.477H32.74
	c0.778-3.522,4.24-6.187,8.382-6.187C45.262,22.291,48.723,24.955,49.5,28.477z M75.392,86.723h-50.78l-6.846-27.362h64.472
	L75.392,86.723z"/>
</svg>
