<svg width="472" height="235" viewBox="0 0 472 235" fill="none" xmlns="http://www.w3.org/2000/svg">
<g clip-path="url(#clip0)">
<path d="M128.871 192.202C141.685 192.202 152.073 181.825 152.073 169.023C152.073 156.221 141.685 145.843 128.871 145.843C116.058 145.843 105.67 156.221 105.67 169.023C105.67 181.825 116.058 192.202 128.871 192.202Z" fill="#E4E4E4"/>
<path opacity="0.2" d="M111.74 153.541C109.576 158.598 109.283 164.26 110.912 169.514C112.542 174.768 115.988 179.272 120.635 182.221C125.283 185.17 130.828 186.372 136.281 185.612C141.734 184.852 146.738 182.18 150.401 178.073C149.079 181.163 147.1 183.929 144.602 186.179C142.104 188.43 139.146 190.11 135.933 191.105C132.72 192.099 129.329 192.384 125.995 191.94C122.661 191.495 119.463 190.332 116.624 188.53C113.785 186.728 111.372 184.331 109.552 181.505C107.732 178.679 106.548 175.492 106.084 172.164C105.619 168.835 105.885 165.446 106.861 162.231C107.838 159.015 109.503 156.05 111.74 153.541Z" fill="black"/>
<path d="M128.935 169.023H128.999L130.146 234.741H127.724L128.935 169.023Z" fill="#3F3D56"/>
<path d="M81.9285 148.976C107.763 148.976 128.707 128.052 128.707 102.242C128.707 76.4313 107.763 55.5077 81.9285 55.5077C56.0936 55.5077 35.1504 76.4313 35.1504 102.242C35.1504 128.052 56.0936 148.976 81.9285 148.976Z" fill="#E4E4E4"/>
<path opacity="0.2" d="M47.3891 71.0271C43.0257 81.2241 42.4338 92.639 45.7191 103.232C49.0044 113.825 55.9528 122.906 65.3227 128.851C74.6926 134.797 85.8734 137.221 96.8671 135.689C107.861 134.157 117.951 128.769 125.335 120.489C122.67 126.719 118.68 132.296 113.644 136.832C108.607 141.369 102.643 144.758 96.1651 146.763C89.6873 148.768 82.8506 149.343 76.1286 148.446C69.4066 147.55 62.9601 145.204 57.2356 141.572C51.5111 137.939 46.6455 133.107 42.976 127.409C39.3065 121.711 36.9208 115.284 35.9842 108.574C35.0476 101.864 35.5825 95.0303 37.5517 88.547C39.521 82.0637 42.8777 76.0857 47.3891 71.0271Z" fill="black"/>
<path d="M82.0569 102.242H82.1856L84.4989 234.741H79.6154L82.0569 102.242Z" fill="#3F3D56"/>
<path d="M390.338 166.16H175.927V229.661H390.338V166.16Z" fill="#F0F0F0"/>
<path d="M295.633 179.283H270.632V229.661H295.633V179.283Z" fill="#CACACA"/>
<path d="M377.837 91.2292H188.427V149.65H377.837V91.2292Z" fill="#F0F0F0"/>
<path d="M397.04 94.8276H169.225C168.844 94.8276 168.473 94.714 168.157 94.5013C167.842 94.2886 167.598 93.9867 167.456 93.6342C167.314 93.2817 167.281 92.8949 167.36 92.5233C167.44 92.1518 167.629 91.8125 167.903 91.5492L230.165 31.7586V5.71506C230.166 5.20999 230.367 4.72578 230.725 4.36864C231.082 4.0115 231.567 3.81061 232.072 3.81004H244.361C244.866 3.8106 245.351 4.01148 245.708 4.36862C246.066 4.72576 246.267 5.20999 246.267 5.71506V16.296L250.97 11.7799C258.666 4.38962 268.876 0.183152 279.549 0.0058414C290.222 -0.17147 300.566 3.69351 308.503 10.824L398.315 91.5058C398.602 91.7635 398.804 92.1021 398.894 92.4768C398.984 92.8515 398.959 93.2447 398.82 93.6045C398.682 93.9644 398.438 94.2739 398.12 94.4923C397.802 94.7106 397.426 94.8276 397.04 94.8276V94.8276Z" fill="#CACACA"/>
<path d="M238.428 106.046C240.014 106.046 241.585 106.358 243.05 106.964C244.515 107.571 245.846 108.459 246.968 109.58C248.089 110.7 248.979 112.03 249.585 113.494C250.192 114.958 250.505 116.527 250.505 118.111V134.41H226.352V118.111C226.352 116.527 226.664 114.958 227.271 113.494C227.878 112.03 228.768 110.7 229.889 109.58C231.01 108.459 232.342 107.571 233.807 106.964C235.272 106.358 236.842 106.046 238.428 106.046Z" fill="white"/>
<path d="M283.132 106.258C286.335 106.258 289.407 107.529 291.672 109.791C293.936 112.054 295.209 115.123 295.209 118.323V134.621H271.056V118.323C271.056 115.123 272.328 112.054 274.593 109.791C276.858 107.529 279.93 106.258 283.132 106.258Z" fill="white"/>
<path d="M327.836 106.469C331.039 106.469 334.111 107.741 336.376 110.003C338.641 112.266 339.913 115.335 339.913 118.534V134.833H315.76V118.534C315.76 115.335 317.032 112.266 319.297 110.003C321.562 107.741 324.634 106.469 327.836 106.469Z" fill="white"/>
<path d="M345.633 178.648C348.836 178.648 351.908 179.92 354.173 182.182C356.437 184.445 357.71 187.514 357.71 190.714V207.012H333.557V190.714C333.557 187.514 334.829 184.445 337.094 182.182C339.359 179.92 342.43 178.648 345.633 178.648Z" fill="white"/>
<path d="M226.14 178.648C229.343 178.648 232.415 179.92 234.679 182.182C236.944 184.445 238.216 187.514 238.216 190.714V207.012H214.063V190.714C214.063 189.129 214.376 187.56 214.983 186.096C215.59 184.633 216.479 183.303 217.601 182.182C218.722 181.062 220.053 180.173 221.518 179.567C222.984 178.961 224.554 178.648 226.14 178.648Z" fill="white"/>
<path d="M421.662 167.151L381.441 149.371C381.225 149.276 380.991 149.226 380.755 149.226H189.069C188.85 149.226 188.633 149.269 188.431 149.351L144.65 167.131C144.286 167.279 143.984 167.549 143.797 167.894C143.61 168.24 143.549 168.639 143.625 169.025C143.7 169.41 143.907 169.758 144.211 170.007C144.514 170.257 144.895 170.393 145.288 170.393H156.647V228.814H155.376V234.741H410.889V228.814H408.77V170.393H420.976C421.365 170.393 421.742 170.26 422.044 170.015C422.346 169.771 422.554 169.43 422.635 169.05C422.715 168.67 422.662 168.274 422.485 167.929C422.308 167.583 422.017 167.309 421.662 167.151ZM405.38 228.814H160.037V170.393H405.38V228.814Z" fill="#CACACA"/>
<path d="M253.471 132.081H222.538V137.161H253.471V132.081Z" fill="#CACACA"/>
<path d="M298.811 132.081H267.878V137.161H298.811V132.081Z" fill="#CACACA"/>
<path d="M344.15 132.081H313.218V137.161H344.15V132.081Z" fill="#CACACA"/>
<path d="M361.1 205.319H330.167V210.399H361.1V205.319Z" fill="#CACACA"/>
<path d="M241.182 205.319H210.25V210.399H241.182V205.319Z" fill="#CACACA"/>
<path d="M471.481 235H0.519252C0.381538 235 0.249464 234.945 0.152085 234.848C0.0547063 234.751 0 234.619 0 234.481C0 234.344 0.0547063 234.212 0.152085 234.114C0.249464 234.017 0.381538 233.962 0.519252 233.962H471.481C471.618 233.962 471.751 234.017 471.848 234.114C471.945 234.212 472 234.344 472 234.481C472 234.619 471.945 234.751 471.848 234.848C471.751 234.945 471.618 235 471.481 235Z" fill="#3F3D56"/>
<path d="M353.022 90.3582C353.022 90.6903 353.017 91.0275 353.012 91.3595C353.006 91.7589 352.996 92.1532 352.98 92.5526C352.965 92.9002 352.949 93.2426 352.929 93.5849C352.866 94.7315 352.768 95.8728 352.633 97.0192C352.601 97.3097 352.565 97.5951 352.524 97.8855C352.492 98.1086 352.461 98.3369 352.425 98.5651C352.389 98.8193 352.352 99.0735 352.311 99.3277C352.228 99.8672 352.134 100.407 352.03 100.946C351.978 101.216 351.927 101.486 351.869 101.755C351.76 102.29 351.641 102.829 351.516 103.364C351.506 103.405 351.496 103.452 351.485 103.493C351.423 103.758 351.36 104.017 351.293 104.282C351.272 104.36 351.257 104.432 351.231 104.51C351.184 104.707 351.132 104.904 351.08 105.102C351.007 105.376 350.935 105.646 350.857 105.921C350.732 106.347 350.608 106.767 350.478 107.192C350.462 107.236 350.448 107.281 350.436 107.327C350.187 108.131 349.922 108.925 349.631 109.713C349.481 110.128 349.32 110.549 349.159 110.964C348.998 111.379 348.832 111.794 348.66 112.203C348.494 112.603 348.323 113.002 348.152 113.397C348.11 113.49 348.068 113.583 348.022 113.677C347.84 114.086 347.653 114.486 347.461 114.885C347.456 114.891 347.456 114.901 347.451 114.906C347.3 115.228 347.139 115.549 346.978 115.866C346.978 115.876 346.974 115.885 346.967 115.892C346.812 116.203 346.651 116.514 346.485 116.82L346.22 117.324L346.189 117.381C345.856 117.998 345.514 118.61 345.15 119.217C345.072 119.352 344.994 119.487 344.917 119.617C344.839 119.751 344.756 119.886 344.672 120.016C344.621 120.109 344.563 120.203 344.501 120.296C344.392 120.472 344.283 120.654 344.169 120.83C344.148 120.867 344.122 120.903 344.101 120.939C343.904 121.245 343.707 121.546 343.509 121.852C343.265 122.221 343.016 122.584 342.762 122.947L337.123 131.963L336.878 131.761L336.811 131.699H336.806L336.582 131.512L335.97 130.993C335.783 131.175 335.601 131.356 335.414 131.533C335.342 131.605 335.264 131.673 335.191 131.745C335.134 131.797 335.082 131.849 335.025 131.901C325.276 141.412 312.308 146.92 298.687 147.334H298.672C288.361 147.617 278.155 145.21 269.059 140.351C268.856 140.248 268.659 140.144 268.462 140.025C267.278 139.381 266.12 138.702 264.983 137.975C264.978 137.97 264.972 137.97 264.967 137.965C263.648 137.031 262.361 136.035 261.104 134.977C254.363 129.3 249.029 122.14 245.522 114.058C242.015 105.977 240.429 97.1936 240.89 88.3972C240.905 88.0496 240.926 87.7073 240.952 87.3597C241.035 86.1043 241.163 84.854 241.336 83.609C241.383 83.2614 241.435 82.9139 241.487 82.5715H352.492C352.71 84.1589 352.861 85.755 352.944 87.3597C352.996 88.361 353.022 89.3571 353.022 90.3582Z" fill="#F0F0F0"/>
<path d="M352.492 82.5717C350.494 69.2941 343.793 57.1737 333.608 48.4139C323.422 39.654 310.429 34.8361 296.989 34.8361C283.55 34.8361 270.557 39.654 260.371 48.4139C250.186 57.1737 243.485 69.2941 241.487 82.5717C241.435 82.914 241.383 83.2616 241.336 83.6092C241.165 84.8542 241.037 86.1044 240.952 87.3598H352.944C352.861 85.7569 352.71 84.1608 352.492 82.5717Z" fill="#F14843"/>
<path d="M300.625 140.35H268.464V114.647C269.058 102.901 279.107 101.952 288.549 102.582C290.135 102.582 291.705 102.894 293.171 103.501C294.636 104.107 295.967 104.995 297.088 106.116C298.21 107.236 299.099 108.566 299.706 110.03C300.313 111.494 300.625 113.063 300.625 114.647V140.35Z" fill="#F14843"/>
<path d="M268.462 122.076V122.081C268.462 122.086 268.467 122.086 268.472 122.086L268.462 122.076ZM255.527 82.5717C255.507 82.7013 255.481 82.831 255.46 82.9607C255.48 82.831 255.506 82.7013 255.532 82.5717H255.527ZM254.883 87.3598C254.868 87.557 254.852 87.7541 254.842 87.9512C254.852 87.7541 254.868 87.557 254.889 87.3598C254.888 87.3234 254.889 87.287 254.894 87.2509C254.889 87.2872 254.889 87.3235 254.883 87.3598ZM268.462 122.081C268.462 122.086 268.467 122.086 268.472 122.086L268.462 122.076V122.081ZM255.527 82.5717C255.507 82.7013 255.481 82.831 255.46 82.9607C255.48 82.831 255.506 82.7013 255.532 82.5717H255.527ZM254.842 87.9512C254.852 87.7541 254.868 87.557 254.889 87.3598C254.888 87.3234 254.889 87.287 254.894 87.2509C254.889 87.2872 254.889 87.3235 254.883 87.3598C254.868 87.557 254.852 87.7541 254.842 87.9512ZM415.26 183.383C415.159 183.276 415.051 183.176 414.938 183.082L414.932 183.077L389.219 161.398L388.554 160.838L386.026 158.705L385.392 158.171L381.789 155.131L380.802 154.301L378.761 152.579L377.718 151.697L367.873 143.402L362.228 138.645L361.47 138.007L344.839 123.985C345.093 123.621 345.342 123.258 345.586 122.89C345.784 122.584 345.981 122.283 346.178 121.977C346.199 121.941 346.225 121.904 346.246 121.868C346.36 121.692 346.469 121.51 346.578 121.334C346.64 121.24 346.698 121.147 346.749 121.054C346.833 120.924 346.916 120.789 346.994 120.654C347.071 120.524 347.149 120.39 347.227 120.255C347.591 119.648 347.933 119.036 348.266 118.418L348.297 118.361L348.562 117.858C348.728 117.552 348.889 117.241 349.044 116.929C349.051 116.922 349.055 116.913 349.055 116.903C349.216 116.587 349.377 116.265 349.527 115.944C349.533 115.939 349.533 115.928 349.538 115.923C349.73 115.524 349.917 115.124 350.099 114.714C350.145 114.621 350.187 114.528 350.229 114.434C350.4 114.04 350.571 113.64 350.737 113.241C350.909 112.831 351.075 112.416 351.236 112.001C351.397 111.586 351.558 111.166 351.708 110.751C351.994 109.957 352.262 109.162 352.513 108.365C352.525 108.319 352.539 108.274 352.555 108.23C352.685 107.804 352.809 107.384 352.934 106.959C353.012 106.684 353.084 106.414 353.157 106.139C353.209 105.942 353.261 105.745 353.308 105.548C353.334 105.47 353.349 105.397 353.37 105.32C353.437 105.055 353.5 104.796 353.562 104.531C353.572 104.489 353.583 104.443 353.593 104.401C353.718 103.867 353.837 103.327 353.946 102.793C354.003 102.523 354.055 102.254 354.107 101.984C354.206 101.444 354.305 100.905 354.388 100.365C354.429 100.111 354.466 99.8569 354.502 99.6027C354.538 99.3745 354.569 99.1462 354.601 98.9231C354.642 98.6326 354.678 98.3473 354.71 98.0568C354.845 96.9104 354.943 95.7691 355.006 94.6225C355.026 94.2802 355.042 93.9378 355.057 93.5902C355.073 93.1908 355.083 92.7965 355.089 92.3971C355.094 92.0651 355.099 91.7279 355.099 91.3958C355.099 90.3947 355.073 89.3986 355.021 88.3974C354.938 86.7944 354.787 85.1984 354.569 83.6092C352.709 70.0252 346.018 57.5637 335.718 48.5026C325.419 39.4415 312.2 34.3859 298.477 34.26C284.754 34.1341 271.444 38.9462 260.98 47.8169C250.516 56.6875 243.596 69.0241 241.487 82.5717C241.435 82.9141 241.383 83.2616 241.336 83.6092C241.165 84.8542 241.037 86.1044 240.952 87.3598C240.926 87.7074 240.905 88.0498 240.89 88.3974C240.429 97.1938 242.015 105.977 245.522 114.059C249.029 122.14 254.363 129.3 261.104 134.977C262.361 136.035 263.648 137.032 264.967 137.965C264.972 137.97 264.978 137.97 264.983 137.976C265.424 138.287 265.866 138.593 266.312 138.894C267.023 139.361 267.74 139.817 268.462 140.253C268.519 140.284 268.576 140.32 268.633 140.352C269.256 140.725 269.885 141.083 270.513 141.431H270.518C272.857 142.715 275.285 143.832 277.782 144.771C285.111 147.526 292.928 148.752 300.749 148.372H300.764C309.893 147.93 318.782 145.303 326.68 140.71C327.828 140.046 328.96 139.335 330.066 138.577C330.341 138.391 330.621 138.199 330.891 138.007C331.224 137.773 331.556 137.529 331.888 137.286C331.894 137.286 331.894 137.28 331.899 137.28C331.924 137.26 331.95 137.241 331.977 137.223C332.2 137.052 332.428 136.881 332.647 136.715C332.704 136.673 332.761 136.632 332.818 136.585C332.833 136.575 332.847 136.563 332.859 136.549C332.989 136.456 333.114 136.352 333.244 136.253C333.373 136.155 333.498 136.051 333.628 135.947C333.65 135.933 333.671 135.918 333.69 135.901C333.836 135.781 333.981 135.667 334.126 135.548C334.277 135.428 334.422 135.304 334.563 135.185C334.708 135.065 334.848 134.946 334.994 134.822C335.118 134.718 335.248 134.609 335.373 134.495C335.414 134.464 335.451 134.427 335.492 134.391C335.508 134.376 335.525 134.362 335.544 134.349C335.715 134.204 335.882 134.054 336.048 133.903C336.089 133.867 336.126 133.831 336.167 133.794C336.422 133.566 336.676 133.338 336.925 133.099C336.982 133.047 337.045 132.99 337.102 132.938C337.159 132.886 337.211 132.835 337.268 132.783C337.341 132.71 337.418 132.643 337.491 132.57C337.678 132.394 337.86 132.212 338.047 132.031L338.659 132.549L338.883 132.736H338.888L338.955 132.798L339.2 133.001L342.824 136.061L342.902 136.129L342.964 136.175L343.374 136.523L344.195 137.218L345.015 137.908L345.135 138.007L348.951 141.223L349.481 141.669L353.162 144.771L372.219 160.838L372.883 161.398L398.965 183.383L405.653 189.022L408.141 191.118C408.669 191.564 409.279 191.902 409.938 192.112C410.597 192.323 411.291 192.401 411.98 192.343C412.669 192.286 413.34 192.093 413.954 191.775C414.569 191.458 415.115 191.023 415.561 190.495C415.934 190.057 416.231 189.559 416.438 189.022C416.815 188.07 416.905 187.028 416.695 186.026C416.486 185.024 415.986 184.105 415.26 183.383ZM264.848 63.1284C270.057 56.961 276.907 52.3919 284.605 49.9487C292.303 47.5055 300.536 47.288 308.353 49.3213C316.17 51.3547 323.251 55.5558 328.779 61.4395C334.308 67.3232 338.057 74.6494 339.594 82.5717C339.662 82.9192 339.724 83.2616 339.781 83.6092C339.994 84.849 340.15 86.1044 340.243 87.3598C340.269 87.7074 340.295 88.0498 340.311 88.3974C340.357 89.1755 340.378 89.9588 340.378 90.737C340.381 95.4572 339.599 100.145 338.062 104.609V104.614C336.346 109.619 333.709 114.26 330.289 118.299C330.217 118.382 330.144 118.47 330.066 118.553C329.38 119.362 328.659 120.141 327.916 120.882C327.911 120.888 327.906 120.898 327.901 120.903C327.646 121.157 327.386 121.417 327.127 121.655C326.597 122.169 326.057 122.657 325.507 123.123C324.681 123.845 323.835 124.521 322.968 125.152C322.677 125.364 322.386 125.572 322.09 125.78C321.799 125.987 321.503 126.184 321.207 126.381C320.615 126.776 320.013 127.154 319.406 127.512C319.104 127.694 318.793 127.87 318.487 128.041C318.18 128.218 317.869 128.384 317.557 128.545C317.246 128.711 316.934 128.871 316.617 129.027C315.989 129.343 315.355 129.639 314.712 129.914C314.39 130.059 314.068 130.194 313.746 130.319C313.543 130.402 313.346 130.485 313.143 130.557C313.064 130.594 312.983 130.625 312.899 130.651C312.79 130.697 312.681 130.739 312.572 130.775C312.537 130.791 312.5 130.805 312.463 130.817C312.24 130.905 312.022 130.983 311.793 131.061C311.466 131.18 311.139 131.289 310.807 131.393C310.475 131.502 310.147 131.605 309.815 131.699C309.483 131.802 309.145 131.896 308.813 131.984C308.475 132.077 308.143 132.166 307.805 132.243C307.447 132.337 307.089 132.42 306.725 132.498C306.409 132.57 306.097 132.632 305.78 132.69C305.484 132.752 305.183 132.804 304.887 132.856C304.472 132.928 304.056 132.996 303.636 133.053C303.407 133.089 303.184 133.12 302.956 133.141C302.857 133.156 302.764 133.167 302.67 133.177C302.379 133.219 302.089 133.25 301.803 133.276C301.725 133.281 301.652 133.291 301.58 133.296C301.263 133.328 300.941 133.354 300.624 133.379C299.944 133.426 299.269 133.457 298.589 133.473C298.246 133.478 297.898 133.483 297.555 133.483C297.213 133.483 296.87 133.478 296.527 133.468C296.527 133.468 296.527 133.473 296.522 133.468C296.517 133.473 296.517 133.473 296.512 133.468C296.511 133.468 296.51 133.469 296.509 133.469C296.509 133.47 296.508 133.47 296.507 133.47C296.506 133.47 296.505 133.47 296.504 133.469C296.503 133.469 296.502 133.468 296.501 133.468C296.484 133.473 296.466 133.473 296.45 133.468C296.205 133.468 295.961 133.457 295.723 133.442C295.546 133.436 295.364 133.431 295.182 133.416C294.939 133.405 294.695 133.39 294.45 133.369C294.373 133.369 294.295 133.359 294.217 133.354C294.18 133.353 294.144 133.349 294.108 133.343C293.858 133.322 293.604 133.302 293.355 133.276C293.23 133.265 293.1 133.255 292.976 133.239C292.597 133.198 292.218 133.151 291.844 133.099C291.418 133.047 290.992 132.985 290.572 132.907C290.374 132.881 290.182 132.845 289.99 132.809C289.736 132.767 289.481 132.721 289.227 132.669C288.962 132.617 288.697 132.565 288.432 132.503C288.219 132.456 288.001 132.409 287.788 132.357C287.684 132.337 287.581 132.311 287.482 132.285C286.937 132.155 286.397 132.015 285.862 131.859C285.524 131.766 285.187 131.668 284.855 131.564C284.398 131.424 283.946 131.273 283.494 131.112C283.318 131.055 283.146 130.993 282.97 130.926C282.793 130.869 282.622 130.801 282.445 130.734C282.284 130.677 282.123 130.614 281.967 130.552C281.708 130.454 281.453 130.35 281.199 130.246C280.675 130.033 280.16 129.81 279.646 129.572C279.356 129.432 279.065 129.297 278.779 129.157C277.653 128.612 276.543 128.007 275.451 127.341C275.181 127.18 274.911 127.009 274.641 126.838C274.303 126.63 273.976 126.412 273.649 126.195C273.467 126.07 273.291 125.951 273.114 125.826C272.787 125.598 272.465 125.365 272.148 125.131C271.982 125.012 271.816 124.887 271.655 124.763C271.079 124.327 270.513 123.871 269.957 123.404C269.692 123.181 269.428 122.952 269.168 122.719C269.059 122.625 268.95 122.527 268.841 122.428C268.716 122.314 268.592 122.205 268.472 122.086L268.462 122.076C268.28 121.915 268.098 121.744 267.922 121.572C267.647 121.313 267.377 121.048 267.117 120.779C266.847 120.514 266.587 120.239 266.333 119.969C266.073 119.7 265.824 119.425 265.58 119.145C265.331 118.87 265.087 118.59 264.848 118.304C264.614 118.034 264.386 117.754 264.167 117.479C263.638 116.826 263.132 116.16 262.651 115.482C262.428 115.171 262.215 114.86 262.007 114.543C261.784 114.221 261.571 113.895 261.369 113.568C261.156 113.241 260.953 112.909 260.756 112.572C260.751 112.56 260.744 112.55 260.735 112.541C260.346 111.882 259.972 111.218 259.624 110.543C259.266 109.859 258.928 109.167 258.612 108.468C258.451 108.121 258.295 107.768 258.149 107.415C257.848 106.705 257.568 105.994 257.308 105.273C257.178 104.925 257.059 104.578 256.94 104.225C256.936 104.202 256.929 104.179 256.919 104.157C256.68 103.442 256.462 102.721 256.27 101.994C256.264 101.984 256.264 101.974 256.259 101.963C256.161 101.605 256.067 101.247 255.984 100.884C255.901 100.568 255.828 100.251 255.761 99.9296C255.683 99.5716 255.605 99.2137 255.538 98.8506C255.501 98.6638 255.465 98.477 255.434 98.2903C255.403 98.1346 255.377 97.9738 255.351 97.8182C255.325 97.6626 255.299 97.5017 255.273 97.3409C255.221 97.0245 255.174 96.7081 255.133 96.3916C255.081 96.0181 255.039 95.6446 254.998 95.2659C254.951 94.8146 254.909 94.3632 254.873 93.9067C254.847 93.6006 254.831 93.2894 254.816 92.9781C254.8 92.6928 254.785 92.4075 254.78 92.1222C254.774 92.107 254.774 92.0906 254.78 92.0755C254.779 92.0748 254.778 92.074 254.778 92.0731C254.777 92.0722 254.777 92.0713 254.777 92.0703C254.777 92.0693 254.777 92.0684 254.778 92.0675C254.778 92.0666 254.779 92.0658 254.78 92.0651C254.774 92.0599 254.774 92.0599 254.78 92.0547C254.779 92.0541 254.778 92.0533 254.778 92.0524C254.777 92.0515 254.777 92.0505 254.777 92.0496C254.777 92.0486 254.777 92.0476 254.778 92.0467C254.778 92.0458 254.779 92.045 254.78 92.0444C254.774 91.9302 254.769 91.8161 254.769 91.702C254.759 91.3648 254.754 91.0276 254.754 90.6904C254.754 90.3843 254.759 90.0834 254.764 89.7774C254.774 89.352 254.79 88.9266 254.811 88.5012C254.811 88.4078 254.821 88.3196 254.826 88.2263C254.831 88.1329 254.837 88.0447 254.842 87.9513C254.852 87.7542 254.868 87.5571 254.889 87.3599C254.888 87.3236 254.889 87.2871 254.894 87.251C254.909 87.0279 254.93 86.8049 254.951 86.5818C254.992 86.1357 255.044 85.6843 255.101 85.2382C255.133 85.0151 255.159 84.7921 255.195 84.569C255.216 84.4134 255.242 84.2525 255.268 84.0917C255.288 83.9309 255.314 83.7701 255.345 83.6093C255.382 83.3966 255.418 83.1787 255.46 82.9608C255.48 82.8311 255.506 82.7014 255.532 82.5718C255.631 82.053 255.74 81.5342 255.859 81.0155C255.979 80.4915 256.114 79.9727 256.259 79.454C256.399 78.93 256.555 78.4061 256.721 77.8821C256.799 77.6176 256.882 77.3582 256.976 77.0988C257.147 76.5748 257.329 76.0561 257.532 75.5425C257.625 75.2883 257.724 75.0289 257.833 74.7747C258.04 74.2612 258.258 73.7476 258.482 73.2444C258.596 72.9902 258.71 72.736 258.835 72.4818C259.068 71.9786 259.313 71.4754 259.577 70.9826C259.832 70.4794 260.107 69.9866 260.387 69.4989C260.668 69.0113 260.959 68.5236 261.265 68.0412C261.405 67.8025 261.561 67.5587 261.722 67.3253C262.033 66.848 262.36 66.3708 262.693 65.9039C263.363 64.9596 264.085 64.031 264.848 63.1284ZM254.883 87.3598C254.868 87.557 254.852 87.7541 254.842 87.9512C254.852 87.7541 254.868 87.557 254.889 87.3598C254.888 87.3234 254.889 87.287 254.894 87.2509C254.889 87.2872 254.889 87.3235 254.883 87.3598ZM255.527 82.5717C255.507 82.7013 255.481 82.831 255.46 82.9607C255.481 82.831 255.507 82.7013 255.533 82.5717H255.527ZM268.462 122.076V122.081C268.462 122.086 268.467 122.086 268.472 122.086L268.462 122.076Z" fill="#3F3D56"/>
<path opacity="0.3" d="M269.958 123.403C261.745 116.479 256.438 106.722 255.092 96.0697C253.747 85.4175 256.46 74.6493 262.693 65.9031C261.874 66.7267 261.083 67.5893 260.319 68.4908C256.693 72.7837 253.949 77.748 252.244 83.1003C250.538 88.4526 249.905 94.0881 250.38 99.6849C250.854 105.282 252.428 110.731 255.01 115.72C257.592 120.709 261.133 125.142 265.43 128.764C274.108 136.08 285.339 139.651 296.653 138.694C307.967 137.736 318.437 132.328 325.76 123.658C326.522 122.755 327.24 121.831 327.914 120.884C320.333 128.494 310.164 132.978 299.428 133.444C288.691 133.911 278.172 130.327 269.958 123.403Z" fill="black"/>
</g>
<defs>
<clipPath id="clip0">
<rect width="472" height="235" fill="white"/>
</clipPath>
</defs>
</svg>
