<?xml version="1.0" encoding="UTF-8" standalone="no"?> <svg height="597pt" viewBox="-18 -27 597.33331 597" width="597pt" xmlns="http://www.w3.org/2000/svg"><path d="m11.25 542.996094c6.210938 0 11.25-5.035156 11.25-11.25v-76.59375h515v76.59375c0 6.214844 5.039062 11.25 11.25 11.25s11.25-5.035156 11.25-11.25v-212.5c0-6.210938-5.039062-11.25-11.25-11.25s-11.25 5.039062-11.25 11.25v50.90625h-515v-200.90625c0-6.210938-5.039062-11.25-11.25-11.25s-11.25 5.039062-11.25 11.25v362.5c0 6.214844 5.039062 11.25 11.25 11.25zm526.25-150.34375v40h-515v-40zm0 0"/><path d="m117.125 232.652344c-33.828125 0-61.25 27.421875-61.25 61.25s27.421875 61.25 61.25 61.25 61.25-27.421875 61.25-61.25c-.039062-33.808594-27.4375-61.210938-61.25-61.25zm0 100c-21.402344 0-38.75-17.347656-38.75-38.75 0-21.398438 17.347656-38.75 38.75-38.75 21.398438 0 38.75 17.351562 38.75 38.75-.023438 21.394531-17.359375 38.726562-38.75 38.75zm0 0"/><path d="m209.554688 355.152344h287.5c6.21875 0 11.25-5.03125 11.25-11.25-.070313-68.308594-55.433594-123.671875-123.75-123.75h-175c-6.210938 0-11.25 5.039062-11.25 11.25v112.5c0 6.21875 5.039062 11.25 11.25 11.25zm11.25-112.5h163.75c51.542968.070312 94.835937 38.789062 100.625 90h-264.375zm0 0"/><path d="m117.125 146.179688c34.277344-.003907 63.972656-23.765626 71.503906-57.207032 7.523438-33.4375-9.136718-67.632812-40.109375-82.316406-30.972656-14.6875-67.988281-5.945312-89.113281 21.046875-22.351562 28.554687-20.464844 69.15625 4.4375 95.515625 13.867188 14.625 33.125 22.925781 53.28125 22.960938zm-41.976562-106.144532c16.042968-20.507812 44.558593-26.425781 67.4375-13.992187 22.882812 12.4375 33.429687 39.585937 24.945312 64.203125-8.484375 24.625-33.515625 39.507812-59.203125 35.210937-25.679687-4.300781-44.5-26.535156-44.5-52.574219-.023437-11.910156 3.964844-23.476562 11.320313-32.847656zm0 0"/><path d="m106.085938 86.871094 17.617187 11.285156c4.648437 2.984375 10.832031 1.625 13.8125-3.023438 2.976563-4.648437 1.625-10.832031-3.023437-13.8125l-13.011719-8.339843v-29.609375c0-5.523438-4.480469-10-10-10-5.523438 0-10 4.476562-10 10v35.089844c0 3.402343 1.738281 6.574218 4.605469 8.410156zm0 0"/></svg>